<svg xmlns="http://www.w3.org/2000/svg" width="300" height="200"><path d="M210 52.8c2.8 0 5-2.3 5-5.1V23.5c0-2.8-2.2-5.1-5-5.1s-5 2.3-5 5.1v24.2c0 2.8 2.2 5.1 5 5.1zm0 94.4c-2.8 0-5 2.3-5 5.1v24.2c0 2.8 2.2 5.1 5 5.1s5-2.3 5-5.1v-24.2c0-2.8-2.2-5.1-5-5.1zM286.9 95h-24.2c-2.8 0-5.1 2.2-5.1 5s2.3 5 5.1 5h24.2c2.8 0 5.1-2.2 5.1-5-.1-2.8-2.3-5-5.1-5zm-53 45.9c-2.4 1.4-3.3 4.5-1.9 6.9l12.1 21c1.4 2.4 4.5 3.3 6.9 1.9 2.4-1.4 3.3-4.5 1.9-6.9l-12.1-21c-1.3-2.5-4.5-3.3-6.9-1.9zm40.2-83.6l-21 12.1c-2.4 1.4-3.3 4.5-1.9 6.9 1.4 2.4 4.5 3.3 6.9 1.9l21-12.1c2.4-1.4 3.3-4.5 1.9-6.9-1.4-2.4-4.5-3.3-6.9-1.9zm-22.9 66.3c-1.4 2.4-.6 5.5 1.9 6.9l21 12.1c2.4 1.4 5.6.6 6.9-1.9 1.4-2.4.6-5.5-1.9-6.9l-21-12.1c-2.4-1.3-5.5-.5-6.9 1.9zm-7-92.4l-12.1 21c-1.4 2.4-.6 5.5 1.9 6.9 2.4 1.4 5.5.6 6.9-1.9l12.1-21c1.4-2.4.6-5.5-1.9-6.9-2.4-1.4-5.5-.5-6.9 1.9z" fill="#FFD500"/><path fill="#B2B3B8" d="M124 26.2c27.4 0 50.4 20.5 53.5 47.8l1.6 14.4 13.8-4.5c2.2-.7 4.5-1.1 6.9-1.1 13.1 0 23.8 11.3 23.8 25.2 0 13.9-10.7 25.2-23.8 25.2L44.4 133c-13.5-.3-24.5-11.5-24.5-25 0-13.8 11.2-25 25-25 3.2 0 6.3.6 9.2 1.8l14.7 5.9 1.5-15.8C73 47.1 96 26.2 124 26.2m0-11.8c-34.1 0-62.2 26.1-65.4 59.4-4.3-1.7-8.9-2.6-13.7-2.6C24.6 71.1 8.5 87.7 8.5 108c0 20.1 16.5 36.4 36.5 36.8l155.1.1c19.7 0 35.5-16.6 35.5-37s-16.1-37-35.8-37c-3.6 0-7.2.6-10.6 1.7-3.6-32.7-31.5-58.2-65.2-58.2z"/><path fill="#FFD500" d="M178.5 145l-10.8 18.8c-1.4 2.4-.6 5.5 1.9 6.9 2.4 1.4 5.5.6 6.9-1.9l12.1-21c.5-.9.6-1.9.6-2.8h-10.7zm31.8-86.9c-8.3 0-16.1 2.5-22.6 6.7.6 2.6 1.2 5.2 1.5 8 3.4-1.1 6.9-1.7 10.5-1.7 19.7 0 35.7 16.6 35.7 37 0 15-8.7 27.9-21.1 33.7 21.3-2 38-19.9 38-41.7-.1-23.2-18.9-42-42-42zm-24.1 1.2c.2-.1.4-.1.5-.2 2.4-1.4 3.3-4.5 1.9-6.9l-12.1-21c-1.4-2.4-4.5-3.3-6.9-1.9-.8.5-1.3 1.1-1.8 1.9 8.3 7.5 14.7 17.2 18.4 28.1z"/></svg>